<svg width="1000" height="1000" fill="none" xmlns="http://www.w3.org/2000/svg"><g clip-path="url(#clip0_2024_16857)" fill="#000"><path d="M500 190c-8.284 0-15 11.195-15 25.004v568.992c0 13.81 6.716 25.004 15 25.004 8.285 0 15-11.194 15-25.004V215.004c0-13.809-6.715-25.004-15-25.004z"/><path d="M783.996 485H215.004C201.195 485 190 491.716 190 500c0 8.285 11.195 15 25.004 15h568.992c13.81 0 25.004-6.715 25.004-15 0-8.284-11.194-15-25.004-15z"/></g><defs><clipPath id="clip0_2024_16857"><path fill="#fff" transform="translate(190 190)" d="M0 0h619v619H0z"/></clipPath></defs></svg>