<svg width="1000" height="1000" fill="none" xmlns="http://www.w3.org/2000/svg"><g clip-path="url(#clip0_2024_16865)" fill="#000"><path d="M718.806 282.806c-5.858-5.858-18.523-2.691-28.287 7.074L288.181 692.218c-9.766 9.765-12.932 22.429-7.074 28.287 5.858 5.858 18.522 2.691 28.287-7.074l402.338-402.338c9.764-9.764 12.932-22.429 7.074-28.287z"/><path d="M711.218 692.218L308.88 289.88c-9.765-9.765-22.43-12.932-28.287-7.074-5.859 5.858-2.691 18.523 7.074 28.287l402.337 402.338c9.766 9.765 22.43 12.932 28.288 7.074 5.857-5.858 2.691-18.522-7.074-28.287z"/></g><defs><clipPath id="clip0_2024_16865"><path fill="#fff" transform="rotate(45 175.009 634.19)" d="M0 0h619v619H0z"/></clipPath></defs></svg>