<svg width="1000" height="1000" fill="none" xmlns="http://www.w3.org/2000/svg"><path d="M717.37 353.74l-30 390.71a61.19 61.19 0 01-61.19 61.19H373.85a61.19 61.19 0 01-61.19-61.19l-30-390.71m318.239-39.33h-182.2m-67.129 0H222v-37.89a28 28 0 0128-28h188.35v-.28c0-29.4 27.61-53.24 61.66-53.24s61.66 23.84 61.66 53.24v.28H750a28 28 0 0128 28v37.89H671.37M397.359 455.96v245.11M500 455.96v245.11m102.641-245.11v245.11" stroke="#020202" stroke-width="30" stroke-miterlimit="10" stroke-linecap="round"/></svg>