<svg width="1000" height="1000" fill="none" xmlns="http://www.w3.org/2000/svg"><path d="M380.531 478.128l-.023.012c-.022.022-.022.045-.022.045-1.562 1.584-2.736 3.499-3.693 5.539-.262.513-.444.98-.65 1.516-.205.524-.49 1.003-.649 1.561l-45.678 168.968a19.442 19.442 0 005.003 18.759 19.406 19.406 0 0013.687 5.675c1.687 0 3.408-.216 5.049-.684l162.472-43.911c1.071.182 2.097.627 3.179.627 4.969 0 9.927-1.892 13.71-5.676l263.105-263.127c14.018-14.029 21.767-32.686 21.767-52.527 0-19.842-7.749-38.498-21.767-52.528l-47.342-47.342c-28.048-28.07-77.042-28.024-105.044 0L380.531 478.128zm290.525-235.706c13.38-13.414 36.811-13.403 50.236.011l47.342 47.331c6.724 6.712 10.417 15.636 10.417 25.141 0 9.505-3.693 18.417-10.417 25.141l-14.245 14.246-97.602-97.59 14.269-14.28zm-41.666 41.677l97.601 97.59-207.762 207.774-97.624-97.602L629.39 284.099zM410.197 535.226l69.941 69.953-104.109 28.161 28.139-104.12 6.029 6.006z" fill="#000"/><path d="M641.641 383.724l-16.653-16.648-121.563 121.597 16.653 16.648 121.563-121.597z" fill="#000"/><path d="M201.363 806h521.285c40.983 0 74.284-33.335 74.284-74.306v-262.33h-38.738v262.341c0 19.614-15.932 35.546-35.546 35.546H220.749V253.215H551.39v-38.749H201.363c-10.701 0-19.363 8.673-19.363 19.374v552.774c0 10.702 8.65 19.386 19.363 19.386z" fill="#000"/></svg>